<?xml version="1.0" standalone="no"?>
<!DOCTYPE svg PUBLIC "-//W3C//DTD SVG 20010904//EN"
 "http://www.w3.org/TR/2001/REC-SVG-20010904/DTD/svg10.dtd">
<svg version="1.0" xmlns="http://www.w3.org/2000/svg"
 width="512.000000pt" height="512.000000pt" viewBox="0 0 512.000000 512.000000"
 preserveAspectRatio="xMidYMid meet">
<metadata>
Created by potrace 1.16, written by Peter Selinger 2001-2019
</metadata>
<g transform="translate(0.000000,512.000000) scale(0.100000,-0.100000)"
fill="#000000" stroke="none">
<path d="M0 2560 l0 -2560 2001 0 c2096 0 2029 -1 2029 39 0 5 9 13 20 16 11
4 18 11 15 16 -4 5 -1 9 5 9 6 0 8 5 5 10 -3 6 -2 10 3 10 5 0 15 14 22 30 7
17 16 30 21 30 5 0 9 7 9 15 0 8 5 15 10 15 6 0 10 7 10 15 0 8 4 15 8 15 4 0
20 24 34 53 15 28 39 67 53 86 14 19 25 42 25 51 0 9 9 25 20 35 11 10 17 22
14 26 -3 5 11 35 30 67 19 31 54 102 77 157 34 82 42 111 42 163 0 34 4 62 9
62 19 0 68 -59 74 -89 4 -17 13 -31 20 -31 8 0 28 -13 44 -29 22 -21 37 -27
56 -23 19 3 32 -2 48 -20 11 -14 50 -37 86 -53 36 -15 75 -37 88 -48 12 -12
32 -22 45 -24 12 -2 27 -10 33 -18 6 -8 18 -15 27 -15 26 0 47 -12 47 -26 0
-26 -41 -73 -58 -66 -10 3 -13 1 -8 -6 4 -7 2 -12 -3 -12 -6 0 -11 -9 -11 -20
0 -11 -7 -20 -15 -20 -20 0 -19 8 6 59 11 23 19 52 17 64 -3 20 -6 18 -27 -15
-26 -43 -36 -46 -51 -18 -6 11 -17 20 -25 20 -17 0 -20 36 -5 45 6 4 17 2 25
-5 9 -7 15 -8 20 0 10 16 -4 30 -29 30 -12 0 -26 4 -32 10 -11 11 -25 3 -40
-25 -12 -20 -39 -22 -61 -3 -16 13 -17 58 -2 58 8 0 8 5 -1 15 -7 8 -18 15
-24 15 -10 0 -76 -130 -76 -151 0 -5 -9 -9 -20 -9 -25 0 -25 6 0 63 31 70 41
135 23 153 -17 17 -37 9 -29 -12 3 -8 -1 -14 -10 -14 -8 0 -19 -10 -24 -22 -6
-13 -19 -36 -29 -53 -11 -16 -20 -38 -20 -47 -1 -9 -8 -24 -17 -33 -15 -14
-15 -18 1 -41 24 -38 13 -50 -13 -14 -22 29 -22 33 -8 61 17 35 61 208 54 214
-6 7 -98 -196 -98 -215 0 -8 -11 -23 -24 -34 -14 -10 -23 -23 -20 -30 3 -7 -9
-30 -25 -52 -17 -21 -61 -84 -97 -139 -37 -55 -100 -141 -141 -191 -40 -51
-73 -94 -73 -98 0 -3 41 -6 91 -6 l91 0 -21 35 -20 35 25 27 c14 15 37 48 51
75 14 26 30 45 34 42 5 -2 -14 -37 -40 -76 l-49 -71 16 -34 c13 -28 21 -33 49
-33 18 0 42 6 53 13 16 9 22 9 28 0 4 -7 24 -12 43 -11 29 1 39 7 58 37 l22
36 -31 -35 c-37 -42 -40 -32 -4 16 14 18 31 31 37 27 5 -3 7 -2 4 4 -4 6 9 28
28 49 47 54 43 28 -9 -58 l-45 -73 161 -3 c110 -2 165 1 174 9 10 8 14 8 14 0
0 -42 39 18 135 206 90 176 110 224 111 262 2 74 2 74 29 67 l25 -6 0 2290 0
2290 -2560 0 -2560 0 0 -2560z m2830 2420 c399 -49 736 -191 1005 -426 82 -72
245 -248 245 -265 0 -21 -19 -5 -85 72 -222 256 -545 453 -883 538 -307 78
-633 86 -957 25 -188 -36 -196 -36 -135 -14 63 24 220 56 330 69 108 12 381
13 480 1z m-95 -141 c289 -25 539 -109 755 -254 90 -61 175 -135 154 -135 -5
0 -32 15 -60 33 -94 62 -219 125 -341 171 -67 25 -125 46 -129 46 -4 0 42 -25
102 -56 59 -30 136 -75 169 -99 67 -48 166 -149 215 -220 49 -71 106 -201 129
-294 22 -87 29 -238 12 -256 -4 -6 -21 -89 -36 -185 -15 -96 -31 -186 -35
-200 -7 -24 -8 -23 -19 15 -6 22 -19 54 -29 70 -59 97 -76 130 -56 113 27 -24
37 -23 24 2 -6 10 -9 23 -8 27 1 4 -2 19 -6 32 -5 16 -4 26 5 31 7 5 14 35 16
76 3 54 0 71 -14 85 -35 35 -41 46 -33 59 6 9 10 8 18 -6 18 -31 21 -11 5 28
-8 21 -19 35 -24 32 -5 -3 -6 1 -3 9 3 8 -1 21 -9 29 -8 8 -17 23 -21 35 -4
12 -14 27 -22 34 -14 11 -18 10 -30 -6 -8 -11 -12 -25 -10 -32 3 -7 1 -13 -5
-13 -6 0 -1 -13 10 -29 11 -15 18 -31 14 -34 -3 -4 0 -13 7 -22 11 -13 10 -14
-4 -9 -12 5 -15 2 -9 -12 5 -13 3 -15 -7 -9 -10 6 -12 4 -7 -8 8 -20 -3 -22
-27 -4 -16 12 -17 18 -8 43 l10 29 1 -27 c1 -16 6 -28 11 -28 14 0 12 20 -4
49 -13 23 -13 23 -34 -20 -24 -49 -129 -165 -140 -154 -4 4 2 13 13 22 11 8
19 19 17 24 -1 6 1 8 6 5 8 -5 82 75 82 89 0 3 -12 -3 -27 -12 l-27 -18 19 33
c11 17 22 32 26 32 4 0 10 12 13 26 8 30 -16 74 -40 74 -15 0 -15 -2 0 -25 9
-14 14 -25 11 -25 -3 0 -1 -9 5 -20 9 -16 8 -20 -5 -20 -9 0 -13 4 -10 10 4 7
-3 7 -20 0 -53 -20 -64 -31 -71 -68 -8 -50 -30 -82 -55 -82 -11 0 -17 -4 -14
-10 12 -19 -41 -10 -55 10 -8 11 -18 20 -22 20 -13 0 -47 -38 -40 -44 3 -3 2
-6 -1 -6 -3 0 -22 14 -41 31 -19 16 -59 43 -88 60 -45 24 -48 28 -21 23 l31
-6 17 78 c9 44 19 86 21 96 3 9 0 19 -6 23 -5 3 -11 -1 -11 -9 -1 -9 -3 -20
-4 -26 -1 -5 -3 -17 -4 -25 -2 -21 -18 -19 -18 3 0 41 -4 53 -15 51 -16 -3
-78 11 -78 17 0 2 6 13 13 24 10 17 9 22 -3 30 -8 5 -11 12 -8 15 14 14 29 -8
26 -38 -2 -18 2 -32 10 -34 6 -3 12 0 12 5 0 6 16 8 39 5 27 -4 40 -1 43 9 5
11 -1 13 -21 11 -14 -2 -32 1 -40 6 -13 8 -13 12 0 27 12 15 12 16 -8 10 -14
-4 -31 -1 -47 9 -14 9 -31 13 -38 9 -7 -4 -5 2 5 13 18 21 23 53 7 53 -5 0 -7
-6 -4 -13 3 -8 -4 -13 -17 -14 -17 -2 -19 1 -10 10 13 13 15 31 2 23 -5 -3
-11 4 -14 15 -5 19 -4 19 11 6 19 -16 105 -39 96 -26 -3 5 -13 9 -22 9 -13 0
-13 2 4 15 18 15 18 15 -8 9 -18 -4 -28 -2 -28 5 0 21 5 26 25 23 15 -1 14 1
-5 9 -20 8 -27 7 -37 -7 -7 -9 -10 -21 -7 -26 4 -5 -3 -4 -14 3 -26 16 -35 48
-16 56 22 8 17 32 -6 26 -14 -4 -20 0 -20 10 0 18 -77 56 -124 61 -20 2 -32
10 -34 20 -2 10 -10 15 -17 12 -8 -3 -16 5 -19 20 -6 23 -10 24 -75 22 -51 -2
-74 1 -87 13 -20 16 -54 15 -54 -2 0 -6 -10 -9 -22 -8 -13 1 -40 -1 -61 -6
-21 -4 -40 -5 -43 -2 -8 8 78 44 126 53 l45 8 -35 6 -35 6 40 8 c22 4 49 11
60 16 31 13 -77 12 -131 -1 -33 -9 -48 -8 -58 0 -8 7 -17 8 -20 3 -3 -6 -18
-13 -32 -16 -19 -5 -30 -2 -40 11 -13 17 -13 17 -14 1 0 -10 -8 -18 -17 -18
-10 0 -40 -11 -67 -25 -27 -13 -54 -21 -61 -18 -17 6 -65 -25 -65 -43 0 -8
-10 -14 -25 -14 -24 0 -76 -24 -117 -52 -9 -7 -21 -9 -25 -4 -11 11 108 120
189 173 38 25 97 58 131 73 34 16 58 29 52 29 -5 1 -84 -19 -173 -44 -90 -25
-171 -45 -180 -45 -46 1 94 74 235 123 224 78 471 108 718 86z m810 -1344 c43
-40 93 -160 81 -192 -5 -13 -13 -4 -31 34 -22 49 -26 52 -69 58 -26 4 -49 11
-51 16 -3 4 -26 -1 -50 -12 -27 -12 -54 -17 -67 -14 -14 5 -18 4 -14 -4 6 -9
0 -12 -29 -11 -3 0 -19 -7 -36 -16 -40 -20 -62 -4 -28 20 13 9 19 16 13 16 -6
0 -19 -9 -29 -20 -10 -11 -15 -20 -11 -20 4 0 4 -5 0 -12 -5 -8 -10 -7 -18 3
-14 17 -42 23 -51 10 -3 -6 -13 -7 -22 -4 -12 5 -14 3 -8 -7 5 -9 4 -11 -3 -6
-17 10 -15 26 4 26 8 0 13 4 9 10 -3 5 5 16 19 25 22 15 23 19 14 56 -11 41
-4 64 12 39 6 -8 10 -25 10 -37 0 -27 -2 -26 38 -12 18 6 29 15 26 20 -5 8 18
13 53 12 7 0 11 4 10 9 -1 6 4 13 11 15 8 3 10 -1 5 -14 -5 -15 -4 -16 8 -7 8
7 27 12 43 12 21 0 25 -3 15 -10 -10 -7 -5 -8 14 -4 21 5 27 3 27 -10 0 -10 5
-14 16 -10 8 3 12 2 9 -3 -3 -5 -1 -12 5 -16 9 -6 15 8 11 29 -1 5 9 1 24 -8
27 -18 35 -7 10 14 -9 7 -14 19 -11 26 3 7 1 16 -4 19 -6 4 -10 11 -10 17 0
10 19 -3 55 -37z m690 -17 l80 -3 3 -65 c2 -44 8 -67 18 -73 21 -12 17 -29 -5
-22 -17 5 -19 0 -17 -72 1 -87 -11 -274 -19 -281 -3 -3 -5 14 -5 37 0 26 -4
40 -10 36 -5 -3 -10 -14 -10 -23 0 -9 -5 -33 -10 -53 -10 -34 -14 -37 -53 -41
-23 -3 -56 1 -73 8 -17 7 -34 10 -38 7 -4 -4 -4 18 -1 48 5 57 20 257 31 422
4 74 9 95 18 88 7 -6 48 -11 91 -13z m-3168 -63 c6 -22 53 -368 53 -395 0 -29
-2 -30 -44 -30 -34 0 -46 4 -50 18 -4 14 -30 150 -53 280 -17 97 -45 5 -49
-161 -4 -196 -22 -184 -23 16 -1 154 0 167 21 203 12 21 21 48 20 59 -3 19 2
21 59 20 35 0 64 -5 66 -10z m2471 -92 c35 -50 62 -112 56 -128 -4 -8 -15 -20
-27 -26 -16 -9 -22 -8 -29 5 -5 9 -19 16 -31 16 -21 1 -21 1 -3 15 10 8 23 12
27 9 5 -3 9 0 9 6 0 8 -6 9 -17 4 -10 -4 -32 -8 -48 -9 -17 -1 -40 -7 -52 -13
-12 -7 -30 -12 -41 -12 -11 0 -31 -9 -45 -20 -28 -22 -42 -26 -31 -9 6 11 -27
-6 -81 -41 -62 -40 -105 -60 -105 -49 0 7 -9 5 -25 -5 -27 -18 -39 -21 -31 -7
4 5 1 11 -5 13 -9 3 -8 10 1 28 12 24 12 24 -6 8 -21 -18 -39 -13 -39 12 0 10
-9 15 -27 14 -16 -1 -28 0 -28 2 0 18 491 212 542 213 9 1 25 -11 36 -26z m7
-530 l-7 -38 21 33 c21 33 33 41 29 20 -2 -7 3 -12 10 -10 18 3 14 -9 -13 -42
-13 -16 -32 -30 -43 -31 -11 -1 -27 -6 -34 -13 -23 -19 -150 -63 -165 -58 -7
3 -13 1 -13 -4 0 -6 -12 -10 -27 -10 -28 1 -28 1 6 15 18 8 36 13 40 11 3 -2
15 2 26 10 10 8 14 14 9 14 -6 0 -15 -5 -22 -12 -9 -9 -12 -9 -12 0 0 6 -8 9
-17 6 -10 -3 9 9 42 28 67 37 158 99 163 111 9 19 12 3 7 -30z m-849 -50 c2
-13 -1 -23 -6 -23 -6 0 -10 -4 -10 -10 0 -5 6 -7 13 -4 24 9 38 -19 28 -54
-10 -35 1 -51 23 -33 7 6 16 8 20 4 4 -4 4 0 0 10 -3 10 -1 17 5 17 13 0 25
-45 16 -59 -3 -6 -2 -11 3 -11 13 0 21 -59 9 -67 -9 -5 -5 -60 9 -116 7 -30
13 -29 -68 -11 -18 4 -28 2 -28 -5 0 -6 -5 -11 -11 -11 -5 0 -7 5 -4 10 3 6 2
10 -4 10 -27 0 -53 111 -29 126 4 3 5 10 2 16 -3 5 -5 49 -4 96 2 48 2 100 2
115 -1 21 3 28 15 25 9 -2 18 -13 19 -25z m707 -587 c-16 -28 -163 -143 -217
-169 -98 -48 -384 -104 -400 -78 -10 16 96 59 209 85 214 50 300 84 380 150
35 29 39 31 28 12z m366 -224 c75 -106 116 -379 71 -475 -26 -54 -35 -24 -41
144 -6 170 -19 231 -70 330 -10 21 -19 41 -19 44 0 13 40 -17 59 -43z m-636
-187 c-30 -92 -42 -113 -54 -93 -5 7 -9 27 -10 43 0 29 -1 28 -13 -10 -7 -22
-18 -50 -25 -62 -16 -31 -3 -29 70 8 75 37 100 33 68 -11 -13 -16 -28 -30 -35
-30 -7 0 -26 -13 -42 -30 -29 -29 -49 -35 -100 -30 -13 1 -30 -4 -38 -11 -19
-16 -284 -26 -284 -11 0 6 21 13 48 16 26 3 72 11 102 17 30 6 79 15 109 19
67 11 78 21 57 51 -10 15 -16 44 -16 76 0 51 1 53 36 68 20 8 40 12 45 9 6 -3
19 6 31 21 13 17 27 25 39 22 14 -4 19 0 19 16 0 14 3 18 10 11 6 -6 0 -38
-17 -89z m855 -120 c40 -33 72 -101 72 -151 0 -22 6 -47 13 -55 12 -16 62 -35
144 -58 70 -19 80 -64 24 -108 l-28 -22 -29 39 c-33 45 -98 80 -116 62 -6 -6
-9 -35 -6 -71 3 -50 10 -68 37 -101 30 -38 32 -44 21 -71 -7 -16 -25 -39 -41
-50 l-28 -20 -13 21 c-7 11 -17 20 -22 20 -5 0 -20 9 -32 21 l-21 20 -17 -42
c-23 -58 -32 -42 -11 21 14 42 15 54 4 68 -11 14 -11 15 1 5 8 -7 17 -13 21
-13 14 0 38 215 29 255 -1 6 -1 42 0 82 1 59 -3 80 -24 122 -28 57 -22 63 22
26z m266 -477 c34 -55 123 -304 118 -331 -5 -23 -21 -22 -76 9 -59 33 -66 47
-66 132 0 38 -5 94 -11 125 -16 80 3 115 35 65z m374 -669 c17 -6 34 -20 38
-31 8 -28 -3 -34 -25 -14 -22 20 -62 18 -69 -3 -3 -9 0 -12 9 -9 8 3 23 2 34
-3 18 -7 17 -8 -7 -8 -27 -1 -51 -21 -25 -21 8 0 21 -10 29 -22 17 -26 39 -20
56 16 6 14 17 37 24 51 6 14 15 25 20 25 15 0 21 -32 10 -51 -7 -10 -12 -22
-12 -26 0 -5 5 0 11 10 14 25 39 4 39 -32 0 -47 -25 -71 -76 -71 -77 0 -137
46 -150 116 -7 37 6 60 41 74 11 5 20 9 21 9 1 1 15 -4 32 -10z m280 -125
c-12 -21 -25 -41 -28 -44 -3 -3 -22 -37 -41 -76 -19 -39 -39 -69 -45 -67 -5 1
-16 -15 -25 -36 l-16 -39 35 -16 c19 -9 36 -16 37 -14 2 2 28 54 60 117 65
131 104 195 112 187 5 -5 -140 -301 -156 -318 -4 -5 -30 4 -59 19 l-52 26 32
56 c18 31 44 76 59 101 15 25 38 65 50 90 29 60 40 73 51 62 5 -5 0 -25 -14
-48z"/>
<path d="M3117 4295 c-15 -19 -36 -54 -46 -79 -17 -39 -18 -43 -3 -42 9 0 17
-4 17 -11 0 -7 7 -18 15 -25 12 -11 12 -11 1 5 -15 19 -9 22 20 6 11 -5 17
-14 15 -18 -3 -4 1 -8 9 -8 8 0 12 4 9 9 -9 14 9 9 28 -9 11 -9 18 -11 18 -5
0 7 7 12 16 12 9 0 12 5 8 13 -5 7 0 6 11 -3 18 -15 18 -15 -1 -18 -39 -8 -32
-17 9 -14 23 3 39 1 35 -3 -6 -6 27 -45 37 -45 2 0 -3 16 -10 36 -15 44 -66
105 -102 122 -32 15 -55 16 -30 1 12 -7 16 -17 12 -30 -5 -13 -2 -17 7 -14 9
4 14 -2 15 -15 2 -21 -11 -27 -22 -10 -4 7 -12 7 -25 0 -11 -6 -21 -6 -24 -1
-4 5 0 11 6 14 9 3 6 12 -10 29 -12 13 -19 28 -15 32 5 4 3 7 -2 6 -24 -5 -24
2 -2 38 47 76 48 83 4 27z"/>
<path d="M3155 4110 c-3 -5 -2 -10 3 -10 6 0 8 -9 5 -20 -3 -12 0 -20 6 -20 7
0 9 5 5 12 -5 7 -3 8 6 3 10 -6 8 -12 -9 -26 -21 -17 -57 -16 -46 1 3 5 1 11
-5 15 -13 8 -3 25 13 21 7 -1 9 -1 4 1 -4 3 -5 8 -2 13 3 5 -3 7 -12 6 -10 -2
-16 -6 -15 -11 2 -4 -2 -12 -10 -16 -10 -7 -10 -9 0 -9 7 0 11 -4 7 -9 -3 -5
-1 -12 5 -16 6 -4 8 -11 4 -16 -3 -5 -9 -7 -14 -4 -5 3 -12 0 -16 -6 -5 -8 -3
-9 6 -4 9 5 11 4 6 -3 -4 -7 -2 -12 3 -12 6 0 11 5 11 10 0 6 5 10 12 10 6 0
8 -3 5 -7 -4 -3 -2 -12 4 -20 6 -7 8 -13 4 -13 -4 0 -1 -8 6 -17 13 -16 12
-17 -3 -4 -10 7 -16 17 -13 21 12 19 -14 18 -38 0 -14 -11 -29 -20 -34 -20 -4
0 -1 5 7 10 13 8 13 10 -1 10 -9 0 -24 10 -35 21 l-19 21 34 -20 c33 -20 58
-21 45 -1 -3 5 -9 7 -13 4 -5 -2 -6 6 -4 18 3 16 -2 25 -19 32 -13 6 -22 18
-21 29 2 31 -17 3 -32 -46 -10 -35 -11 -49 -2 -58 8 -9 8 -11 1 -7 -7 4 -16
-10 -24 -38 -7 -25 -11 -47 -9 -48 2 -2 24 -18 48 -37 42 -33 44 -33 58 -14 7
10 19 19 26 19 19 0 148 76 154 90 2 7 14 16 26 19 12 3 32 15 45 25 l22 20
-25 25 c-29 29 -45 32 -63 14 -9 -9 -12 -8 -12 5 0 9 3 16 8 16 24 -4 32 1 21
14 -15 16 -46 19 -55 6 -3 -6 -12 -2 -21 10 -15 23 -28 27 -38 11z"/>
</g>
</svg>
